<svg width="26" height="26" viewBox="0 0 26 26" fill="none" xmlns="http://www.w3.org/2000/svg">
  <path d="M12.6302 22.2812L12.6229 22.2781L12.6 22.2656C12.4659 22.1918 12.3329 22.1161 12.201 22.0385C10.6154 21.0963 9.13362 19.9895 7.78021 18.7364C5.38333 16.5 2.84375 13.1812 2.84375 9.0937C2.84375 6.0437 5.41042 3.62495 8.50833 3.62495C9.36953 3.62073 10.2206 3.81072 10.9983 4.18079C11.7759 4.55086 12.4601 5.09148 13 5.76245C13.54 5.09134 14.2244 4.55064 15.0022 4.18056C15.7801 3.81049 16.6313 3.62058 17.4927 3.62495C20.5896 3.62495 23.1562 6.0437 23.1562 9.0937C23.1562 13.1822 20.6167 16.501 18.2198 18.7354C16.8664 19.9885 15.3846 21.0953 13.799 22.0375C13.6671 22.1154 13.5341 22.1915 13.4 22.2656L13.3771 22.2781L13.3698 22.2822L13.3667 22.2833C13.2537 22.3431 13.1278 22.3744 13 22.3744C12.8722 22.3744 12.7463 22.3431 12.6333 22.2833L12.6302 22.2812Z" fill="#17CF97" />
</svg>