<svg width="21" height="21" viewBox="0 0 21 21" fill="none" xmlns="http://www.w3.org/2000/svg">
<path d="M10.6212 18.3416L10.6153 18.3391L10.597 18.3291C10.4897 18.27 10.3833 18.2095 10.2778 18.1474C9.00933 17.3936 7.82389 16.5082 6.74116 15.5057C4.82366 13.7166 2.79199 11.0616 2.79199 7.79156C2.79199 5.35156 4.84533 3.41656 7.32366 3.41656C8.01262 3.41319 8.69348 3.56518 9.31559 3.86123C9.93771 4.15729 10.4851 4.58979 10.917 5.12656C11.349 4.58968 11.8965 4.15711 12.5188 3.86105C13.141 3.56499 13.8221 3.41306 14.5112 3.41656C16.9887 3.41656 19.042 5.35156 19.042 7.79156C19.042 11.0624 17.0103 13.7174 15.0928 15.5049C14.0101 16.5074 12.8247 17.3928 11.5562 18.1466C11.4507 18.2089 11.3443 18.2698 11.237 18.3291L11.2187 18.3391L11.2128 18.3424L11.2103 18.3432C11.12 18.3911 11.0193 18.4161 10.917 18.4161C10.8147 18.4161 10.714 18.3911 10.6237 18.3432L10.6212 18.3416Z" fill="#F3F5F7"/>
</svg>
