<svg width="250" height="245" viewBox="0 0 250 245" fill="none" xmlns="http://www.w3.org/2000/svg">
  <path d="M125 65.051C125 96.751 99.3021 122.449 67.6021 122.449H10.2041V65.051C10.2041 33.351 35.902 7.65308 67.6021 7.65308C99.3021 7.65308 125 33.351 125 65.051Z" fill="white" />
  <path d="M125 179.847C125 148.147 150.698 122.449 182.398 122.449H239.796V179.847C239.796 211.547 214.098 237.245 182.398 237.245C150.698 237.245 125 211.547 125 179.847Z" fill="white" />
  <path d="M10.2041 179.847C10.2041 211.547 35.902 237.245 67.6021 237.245H125V179.847C125 148.147 99.3021 122.449 67.6021 122.449C35.902 122.449 10.2041 148.147 10.2041 179.847Z" fill="white" />
  <path d="M239.796 65.051C239.796 33.351 214.098 7.65308 182.398 7.65308H125V65.051C125 96.751 150.698 122.449 182.398 122.449C214.098 122.449 239.796 96.751 239.796 65.051Z" fill="white" />
</svg>