<svg width="26" height="26" viewBox="0 0 26 26" fill="none" xmlns="http://www.w3.org/2000/svg">
<path d="M2.84375 3.625H4.2875C4.81875 3.625 5.28229 3.98229 5.41979 4.49479L5.81875 5.99167M5.81875 5.99167C11.6215 5.82905 17.4187 6.47412 23.0437 7.90833C22.1854 10.4646 21.1656 12.9479 19.9979 15.3437H8.3125M5.81875 5.99167L8.3125 15.3437M8.3125 15.3437C7.4837 15.3437 6.68884 15.673 6.10279 16.259C5.51674 16.8451 5.1875 17.6399 5.1875 18.4687H21.5937M6.75 21.5937C6.75 21.8009 6.66769 21.9997 6.52118 22.1462C6.37466 22.2927 6.17595 22.375 5.96875 22.375C5.76155 22.375 5.56284 22.2927 5.41632 22.1462C5.26981 21.9997 5.1875 21.8009 5.1875 21.5937C5.1875 21.3865 5.26981 21.1878 5.41632 21.0413C5.56284 20.8948 5.76155 20.8125 5.96875 20.8125C6.17595 20.8125 6.37466 20.8948 6.52118 21.0413C6.66769 21.1878 6.75 21.3865 6.75 21.5937ZM20.0312 21.5937C20.0312 21.8009 19.9489 21.9997 19.8024 22.1462C19.6559 22.2927 19.4572 22.375 19.25 22.375C19.0428 22.375 18.8441 22.2927 18.6976 22.1462C18.5511 21.9997 18.4687 21.8009 18.4687 21.5937C18.4687 21.3865 18.5511 21.1878 18.6976 21.0413C18.8441 20.8948 19.0428 20.8125 19.25 20.8125C19.4572 20.8125 19.6559 20.8948 19.8024 21.0413C19.9489 21.1878 20.0312 21.3865 20.0312 21.5937Z" stroke="white" stroke-width="1.5625" stroke-linecap="round" stroke-linejoin="round"/>
</svg>

