<svg width="26" height="26" viewBox="0 0 26 26" fill="none" xmlns="http://www.w3.org/2000/svg">
<path d="M16.9062 6.75C16.9062 7.786 16.4946 8.77957 15.7621 9.51214C15.0295 10.2447 14.0359 10.6562 12.9999 10.6562C11.9639 10.6562 10.9704 10.2447 10.2378 9.51214C9.50523 8.77957 9.09368 7.786 9.09368 6.75C9.09368 5.714 9.50523 4.72043 10.2378 3.98786C10.9704 3.2553 11.9639 2.84375 12.9999 2.84375C14.0359 2.84375 15.0295 3.2553 15.7621 3.98786C16.4946 4.72043 16.9062 5.714 16.9062 6.75ZM5.18848 21.4562C5.22195 19.4066 6.05966 17.4523 7.52095 16.0146C8.98224 14.577 10.95 13.7713 12.9999 13.7713C15.0498 13.7713 17.0176 14.577 18.4789 16.0146C19.9402 17.4523 20.7779 19.4066 20.8114 21.4562C18.3608 22.58 15.6959 23.1599 12.9999 23.1562C10.2124 23.1562 7.5666 22.5479 5.18848 21.4562Z" stroke="white" stroke-width="1.5625" stroke-linecap="round" stroke-linejoin="round"/>
</svg>

