<svg width="26" height="26" viewBox="0 0 26 26" fill="none" xmlns="http://www.w3.org/2000/svg">
<path fill-rule="evenodd" clip-rule="evenodd" d="M8.31256 6.75C8.31256 5.5068 8.80642 4.31451 9.6855 3.43544C10.5646 2.55636 11.7569 2.0625 13.0001 2.0625C14.2433 2.0625 15.4355 2.55636 16.3146 3.43544C17.1937 4.31451 17.6876 5.5068 17.6876 6.75C17.6876 7.9932 17.1937 9.18549 16.3146 10.0646C15.4355 10.9436 14.2433 11.4375 13.0001 11.4375C11.7569 11.4375 10.5646 10.9436 9.6855 10.0646C8.80642 9.18549 8.31256 7.9932 8.31256 6.75ZM4.40735 21.4427C4.44248 19.187 5.36323 17.0355 6.97085 15.4527C8.57848 13.8699 10.744 12.9828 13.0001 12.9828C15.2561 12.9828 17.4216 13.8699 19.0293 15.4527C20.6369 17.0355 21.5576 19.187 21.5928 21.4427C21.5955 21.5946 21.5539 21.7439 21.473 21.8725C21.3922 22.0011 21.2756 22.1033 21.1376 22.1667C18.5846 23.3372 15.8086 23.9413 13.0001 23.9375C10.098 23.9375 7.34068 23.3042 4.86256 22.1667C4.72452 22.1033 4.60795 22.0011 4.5271 21.8725C4.44626 21.7439 4.40464 21.5946 4.40735 21.4427Z" fill="#17CF97"/>
</svg>
