<svg width="41" height="40" viewBox="0 0 41 40" fill="none" xmlns="http://www.w3.org/2000/svg">
<path d="M20.5 10.8164C20.5 15.8884 16.3884 20 11.3164 20H2.13269V10.8164C2.13269 5.74436 6.24436 1.63269 11.3164 1.63269C16.3884 1.63269 20.5 5.74436 20.5 10.8164Z" fill="#17CF97"/>
<path d="M20.5 29.1837C20.5 24.1117 24.6117 20 29.6837 20H38.8673V29.1837C38.8673 34.2557 34.7557 38.3673 29.6837 38.3673C24.6117 38.3673 20.5 34.2557 20.5 29.1837Z" fill="#17CF97"/>
<path d="M2.13269 29.1837C2.13269 34.2557 6.24436 38.3673 11.3164 38.3673H20.5V29.1837C20.5 24.1117 16.3884 20 11.3164 20C6.24436 20 2.13269 24.1117 2.13269 29.1837Z" fill="#17CF97"/>
<path d="M38.8673 10.8164C38.8673 5.74436 34.7557 1.63269 29.6837 1.63269H20.5V10.8164C20.5 15.8884 24.6117 20 29.6837 20C34.7557 20 38.8673 15.8884 38.8673 10.8164Z" fill="#17CF97"/>
</svg>
