<svg width="80" height="80" viewBox="0 0 80 80" fill="none" xmlns="http://www.w3.org/2000/svg">
<path d="M26 6.66675H54C64.6667 6.66675 73.3333 15.3334 73.3333 26.0001V54.0001C73.3333 59.1276 71.2964 64.0451 67.6707 67.6708C64.045 71.2965 59.1275 73.3334 54 73.3334H26C15.3333 73.3334 6.66666 64.6667 6.66666 54.0001V26.0001C6.66666 20.8726 8.70356 15.9551 12.3293 12.3294C15.955 8.70365 20.8725 6.66675 26 6.66675ZM25.3333 13.3334C22.1507 13.3334 19.0985 14.5977 16.848 16.8481C14.5976 19.0986 13.3333 22.1508 13.3333 25.3334V54.6667C13.3333 61.3001 18.7 66.6667 25.3333 66.6667H54.6667C57.8493 66.6667 60.9015 65.4025 63.1519 63.152C65.4024 60.9016 66.6667 57.8493 66.6667 54.6667V25.3334C66.6667 18.7001 61.3 13.3334 54.6667 13.3334H25.3333ZM57.5 18.3334C58.6051 18.3334 59.6649 18.7724 60.4463 19.5538C61.2277 20.3352 61.6667 21.395 61.6667 22.5001C61.6667 23.6052 61.2277 24.665 60.4463 25.4464C59.6649 26.2278 58.6051 26.6667 57.5 26.6667C56.3949 26.6667 55.3351 26.2278 54.5537 25.4464C53.7723 24.665 53.3333 23.6052 53.3333 22.5001C53.3333 21.395 53.7723 20.3352 54.5537 19.5538C55.3351 18.7724 56.3949 18.3334 57.5 18.3334ZM40 23.3334C44.4203 23.3334 48.6595 25.0894 51.7851 28.215C54.9107 31.3406 56.6667 35.5798 56.6667 40.0001C56.6667 44.4204 54.9107 48.6596 51.7851 51.7852C48.6595 54.9108 44.4203 56.6667 40 56.6667C35.5797 56.6667 31.3405 54.9108 28.2149 51.7852C25.0893 48.6596 23.3333 44.4204 23.3333 40.0001C23.3333 35.5798 25.0893 31.3406 28.2149 28.215C31.3405 25.0894 35.5797 23.3334 40 23.3334ZM40 30.0001C37.3478 30.0001 34.8043 31.0536 32.9289 32.929C31.0536 34.8044 30 37.3479 30 40.0001C30 42.6522 31.0536 45.1958 32.9289 47.0711C34.8043 48.9465 37.3478 50.0001 40 50.0001C42.6522 50.0001 45.1957 48.9465 47.0711 47.0711C48.9464 45.1958 50 42.6522 50 40.0001C50 37.3479 48.9464 34.8044 47.0711 32.929C45.1957 31.0536 42.6522 30.0001 40 30.0001Z" fill="white"/>
</svg>
