<svg width="80" height="80" viewBox="0 0 80 80" fill="none" xmlns="http://www.w3.org/2000/svg">
<g clip-path="url(#clip0_25_400)">
<path fill-rule="evenodd" clip-rule="evenodd" d="M40 6.66675C21.59 6.66675 6.66667 21.5901 6.66667 40.0001C6.66667 58.4101 21.59 73.3334 40 73.3334C58.41 73.3334 73.3333 58.4101 73.3333 40.0001C73.3333 21.5901 58.41 6.66675 40 6.66675ZM13.3333 40.0001C13.3344 34.4502 15.0671 29.0389 18.2898 24.5205C21.5125 20.0021 26.0647 16.6018 31.3118 14.7936C36.5589 12.9854 42.2395 12.8594 47.5616 14.4332C52.8837 16.0069 57.5822 19.2019 61.0021 23.5729C64.4221 27.944 66.393 33.2731 66.6402 38.8175C66.8874 44.3619 65.3986 49.8453 62.3812 54.5033C59.3638 59.1614 54.9683 62.7619 49.8074 64.803C44.6464 66.8441 38.9772 67.2241 33.59 65.8901L35.9833 54.6434C38.2733 56.6301 41.1167 57.3867 43.8467 57.3367C46.84 57.2801 49.8467 56.2701 52.3633 54.6867C54.87 53.1101 57.11 50.8201 58.3367 47.9967C59.6626 44.9531 60.2099 41.6273 59.9294 38.3193C59.6489 35.0113 58.5494 31.8252 56.7299 29.0483C54.9105 26.2714 52.4284 23.9911 49.5076 22.413C46.5867 20.835 43.319 20.0089 39.9991 20.0092C36.6793 20.0095 33.4117 20.8362 30.4911 22.4148C27.5706 23.9933 25.0889 26.2741 23.27 29.0513C21.451 31.8286 20.3521 35.0149 20.0722 38.323C19.7923 41.631 20.3402 44.9567 21.6667 48.0001C21.8326 48.4144 22.0802 48.7912 22.3945 49.1081C22.7089 49.425 23.0837 49.6755 23.4967 49.8449C23.9097 50.0142 24.3525 50.0988 24.7988 50.0937C25.2451 50.0887 25.6859 49.994 26.095 49.8154C26.504 49.6367 26.873 49.3778 27.1801 49.0538C27.4872 48.7299 27.7261 48.3476 27.8826 47.9296C28.0392 47.5116 28.1101 47.0664 28.0914 46.6204C28.0726 46.1744 27.9644 45.7368 27.7733 45.3334C26.9832 43.517 26.6077 41.5474 26.6742 39.5677C26.7406 37.5881 27.2473 35.6481 28.1574 33.8887C29.0675 32.1294 30.3582 30.5949 31.9356 29.3969C33.513 28.1989 35.3375 27.3673 37.2765 26.9627C39.2156 26.5581 41.2204 26.5906 43.1453 27.0579C45.0702 27.5252 46.8668 28.4154 48.4045 29.664C49.9422 30.9125 51.1825 32.488 52.035 34.276C52.8876 36.0639 53.3311 38.0193 53.3333 40.0001C53.3333 43.6501 51.9667 47.0567 48.81 49.0434C47.1833 50.0701 45.3467 50.6434 43.7233 50.6701C42.1333 50.7034 40.9167 50.2234 40.0733 49.3401C39.2467 48.4734 38.3367 46.8001 38.3367 43.6667C38.3367 41.6667 39.1 40.0001 40.0133 35.6934C40.1122 35.2624 40.1243 34.816 40.0489 34.3803C39.9736 33.9446 39.8123 33.5282 39.5744 33.1554C39.3366 32.7827 39.027 32.4609 38.6636 32.209C38.3002 31.957 37.8903 31.7799 37.4578 31.6879C37.0252 31.5959 36.5787 31.5909 36.1443 31.6732C35.7098 31.7554 35.296 31.9233 34.9271 32.167C34.5581 32.4108 34.2413 32.7255 33.9952 33.0928C33.749 33.4602 33.5784 33.8728 33.4933 34.3067L27.2933 63.4501C23.0696 61.1617 19.5426 57.7745 17.0853 53.6468C14.628 49.519 13.3317 44.8039 13.3333 40.0001Z" fill="white"/>
</g>
<defs>
<clipPath id="clip0_25_400">
<rect width="80" height="80" fill="white"/>
</clipPath>
</defs>
</svg>
