<svg width="80" height="80" viewBox="0 0 80 80" fill="none" xmlns="http://www.w3.org/2000/svg">
<path d="M40.0033 66.6667C47.0758 66.6667 53.8585 63.8572 58.8595 58.8563C63.8605 53.8553 66.67 47.0725 66.67 40.0001C66.67 32.9276 63.8605 26.1449 58.8595 21.1439C53.8585 16.1429 47.0758 13.3334 40.0033 13.3334C32.9309 13.3334 26.1481 16.1429 21.1472 21.1439C16.1462 26.1449 13.3367 32.9276 13.3367 40.0001C13.3367 47.0725 16.1462 53.8553 21.1472 58.8563C26.1481 63.8572 32.9309 66.6667 40.0033 66.6667ZM40.0033 73.3334C21.5933 73.3334 6.67 58.4101 6.67 40.0001C6.67 21.5901 21.5933 6.66675 40.0033 6.66675C58.4133 6.66675 73.3367 21.5901 73.3367 40.0001C73.3367 58.4101 58.4133 73.3334 40.0033 73.3334ZM29.6367 43.9001L21.31 41.3034C19.51 40.7534 19.5 39.5134 21.7133 38.6234L54.1567 26.0901C56.0367 25.3234 57.11 26.2934 56.5 28.7234L50.9733 54.7901C50.5867 56.6467 49.47 57.0901 47.92 56.2334L39.4167 49.9401L35.4533 53.7667C35.0467 54.1601 34.7167 54.4967 34.09 54.5801C33.4667 54.6667 32.9533 54.4801 32.5767 53.4467L29.6767 43.8767L29.6367 43.9001Z" fill="white"/>
</svg>
