<svg width="80" height="80" viewBox="0 0 80 80" fill="none" xmlns="http://www.w3.org/2000/svg">
<path d="M63.5 16.3669C60.444 13.28 56.8039 10.8325 52.7921 9.16712C48.7803 7.50173 44.4771 6.65181 40.1333 6.66695C21.9333 6.66695 7.1 21.5003 7.1 39.7003C7.1 45.5336 8.63333 51.2003 11.5 56.2003L6.83333 73.3336L24.3333 68.7336C29.1667 71.3669 34.6 72.7669 40.1333 72.7669C58.3333 72.7669 73.1667 57.9336 73.1667 39.7336C73.1667 30.9003 69.7333 22.6003 63.5 16.3669ZM40.1333 67.1669C35.2 67.1669 30.3667 65.8336 26.1333 63.3336L25.1333 62.7336L14.7333 65.4669L17.5 55.3336L16.8333 54.3003C14.0925 49.9235 12.6371 44.8644 12.6333 39.7003C12.6333 24.5669 24.9667 12.2336 40.1 12.2336C47.4333 12.2336 54.3333 15.1003 59.5 20.3003C62.0583 22.8468 64.0857 25.8758 65.4646 29.2117C66.8436 32.5476 67.5468 36.124 67.5333 39.7336C67.6 54.8669 55.2667 67.1669 40.1333 67.1669ZM55.2 46.6336C54.3667 46.2336 50.3 44.2336 49.5667 43.9336C48.8 43.6669 48.2667 43.5336 47.7 44.3336C47.1333 45.1669 45.5667 47.0336 45.1 47.5669C44.6333 48.1336 44.1333 48.2003 43.3 47.7669C42.4667 47.3669 39.8 46.4669 36.6667 43.6669C34.2 41.4669 32.5667 38.7669 32.0667 37.9336C31.6 37.1003 32 36.6669 32.4333 36.2336C32.8 35.8669 33.2667 35.2669 33.6667 34.8003C34.0667 34.3336 34.2333 33.9669 34.5 33.4336C34.7667 32.8669 34.6333 32.4003 34.4333 32.0003C34.2333 31.6003 32.5667 27.5336 31.9 25.8669C31.2333 24.2669 30.5333 24.4669 30.0333 24.4336H28.4333C27.8667 24.4336 27 24.6336 26.2333 25.4669C25.5 26.3003 23.3667 28.3003 23.3667 32.3669C23.3667 36.4336 26.3333 40.3669 26.7333 40.9003C27.1333 41.4669 32.5667 49.8003 40.8333 53.3669C42.8 54.2336 44.3333 54.7336 45.5333 55.1003C47.5 55.7336 49.3 55.6336 50.7333 55.4336C52.3333 55.2003 55.6333 53.4336 56.3 51.5003C57 49.5669 57 47.9336 56.7667 47.5669C56.5333 47.2003 56.0333 47.0336 55.2 46.6336Z" fill="white"/>
</svg>
