<svg width="401" height="392" viewBox="0 0 401 392" fill="none" xmlns="http://www.w3.org/2000/svg">
<g clip-path="url(#clip0_342_146)">
<path d="M254.755 88.6728H146.972C144.516 88.6758 142.161 89.6528 140.424 91.3896C138.688 93.1264 137.71 95.4811 137.707 97.9373V337.485L136.472 337.862L110.031 345.959C108.778 346.341 107.425 346.211 106.268 345.596C105.111 344.981 104.246 343.932 103.861 342.68L25.2122 85.7761C24.8294 84.523 24.9599 83.1692 25.5749 82.0122C26.1898 80.8552 27.239 79.9898 28.4918 79.606L69.2371 67.1298L187.359 30.9737L228.104 18.4976C228.724 18.3068 229.376 18.2401 230.021 18.3014C230.667 18.3626 231.295 18.5507 231.868 18.8547C232.441 19.1588 232.948 19.5729 233.361 20.0733C233.774 20.5737 234.084 21.1506 234.274 21.771L254.378 87.4375L254.755 88.6728Z" fill="#F2F2F2"/>
<path d="M278.274 87.4376L254.044 8.29438C253.641 6.97571 252.982 5.74939 252.105 4.6855C251.228 3.62162 250.15 2.74102 248.932 2.09403C247.714 1.44704 246.381 1.04632 245.008 0.914796C243.636 0.783273 242.251 0.923518 240.932 1.3275L183.647 18.862L65.5313 55.0243L8.24609 72.565C5.58492 73.3822 3.35668 75.2218 2.05048 77.6802C0.744279 80.1385 0.466823 83.0147 1.27903 85.6773L84.091 356.156C84.7508 358.306 86.0821 360.187 87.8896 361.524C89.697 362.862 91.8855 363.584 94.1339 363.586C95.1744 363.587 96.2092 363.431 97.2033 363.123L136.472 351.104L137.708 350.721V349.43L136.472 349.807L96.839 361.944C94.49 362.66 91.9529 362.415 89.7843 361.263C87.6156 360.111 85.9924 358.145 85.2708 355.798L2.46513 85.3129C2.10758 84.1499 1.98296 82.9277 2.09841 81.7164C2.21386 80.5052 2.56711 79.3286 3.13793 78.254C3.70876 77.1794 4.48596 76.228 5.425 75.4543C6.36405 74.6805 7.4465 74.0995 8.61038 73.7447L65.8956 56.204L184.011 20.0479L241.297 2.50719C242.18 2.23778 243.097 2.10041 244.02 2.09955C246.001 2.104 247.928 2.7426 249.52 3.92183C251.112 5.10105 252.284 6.75892 252.865 8.65261L276.983 87.4376L277.366 88.6729H278.651L278.274 87.4376Z" fill="#3F3D56"/>
<path d="M76.5899 79.8081C75.3994 79.8072 74.2406 79.4249 73.2834 78.7172C72.3262 78.0095 71.621 77.0137 71.2712 75.8758L63.3159 49.891C63.1022 49.193 63.028 48.4597 63.0976 47.733C63.1673 47.0064 63.3794 46.3005 63.7219 45.6559C64.0643 45.0112 64.5305 44.4403 65.0936 43.9758C65.6568 43.5113 66.3059 43.1623 67.0039 42.9487L175.669 9.68074C177.079 9.25058 178.602 9.39729 179.903 10.0887C181.205 10.78 182.179 11.9596 182.612 13.3684L190.567 39.3536C190.997 40.7632 190.85 42.2859 190.159 43.5874C189.468 44.8889 188.288 45.8631 186.879 46.2962L78.2139 79.5641C77.6876 79.7256 77.1403 79.8078 76.5899 79.8081Z" fill="#17CF97"/>
<path d="M118.263 28.6273C125.085 28.6273 130.615 23.0969 130.615 16.2747C130.615 9.45257 125.085 3.92212 118.263 3.92212C111.441 3.92212 105.91 9.45257 105.91 16.2747C105.91 23.0969 111.441 28.6273 118.263 28.6273Z" fill="#17CF97"/>
<path d="M118.263 24.0968C122.583 24.0968 126.085 20.5947 126.085 16.2747C126.085 11.9547 122.583 8.45264 118.263 8.45264C113.943 8.45264 110.441 11.9547 110.441 16.2747C110.441 20.5947 113.943 24.0968 118.263 24.0968Z" fill="white"/>
<path d="M373.025 360.43H164.266C162.874 360.429 161.54 359.875 160.556 358.891C159.571 357.907 159.018 356.572 159.016 355.181V105.04C159.018 103.648 159.571 102.314 160.555 101.33C161.54 100.345 162.874 99.7918 164.266 99.7903H373.025C374.417 99.7919 375.751 100.346 376.736 101.33C377.72 102.314 378.273 103.648 378.275 105.04V355.181C378.273 356.572 377.72 357.907 376.736 358.891C375.751 359.875 374.417 360.429 373.025 360.43Z" fill="#E6E6E6"/>
<path d="M276.983 87.4375H146.972C144.188 87.4414 141.52 88.5489 139.552 90.5172C137.584 92.4854 136.476 95.1537 136.472 97.9372V349.807L137.707 349.43V97.9372C137.71 95.4811 138.687 93.1263 140.424 91.3896C142.161 89.6528 144.516 88.6757 146.972 88.6728H277.366L276.983 87.4375ZM390.318 87.4375H146.972C144.188 87.4414 141.52 88.5489 139.552 90.5172C137.584 92.4854 136.476 95.1537 136.472 97.9372V380.812C136.476 383.596 137.584 386.264 139.552 388.232C141.52 390.2 144.188 391.308 146.972 391.312H390.318C393.102 391.308 395.77 390.2 397.738 388.232C399.707 386.264 400.814 383.596 400.818 380.812V97.9372C400.814 95.1537 399.707 92.4854 397.738 90.5172C395.77 88.5489 393.102 87.4414 390.318 87.4375ZM399.583 380.812C399.58 383.268 398.603 385.623 396.866 387.36C395.129 389.097 392.775 390.074 390.318 390.077H146.972C144.516 390.074 142.161 389.097 140.424 387.36C138.687 385.623 137.71 383.268 137.707 380.812V97.9372C137.71 95.4811 138.687 93.1263 140.424 91.3896C142.161 89.6528 144.516 88.6757 146.972 88.6728H390.318C392.775 88.6757 395.129 89.6528 396.866 91.3896C398.603 93.1263 399.58 95.4811 399.583 97.9372V380.812Z" fill="#3F3D56"/>
<path d="M325.467 114.613H211.823C210.35 114.612 208.937 114.026 207.895 112.983C206.852 111.941 206.266 110.528 206.265 109.055V81.879C206.266 80.4052 206.853 78.9923 207.895 77.9502C208.937 76.9082 210.35 76.322 211.823 76.3203H325.467C326.941 76.322 328.354 76.9082 329.396 77.9502C330.438 78.9923 331.024 80.4052 331.026 81.879V109.055C331.024 110.528 330.438 111.941 329.396 112.983C328.354 114.026 326.941 114.612 325.467 114.613Z" fill="#17CF97"/>
<path d="M268.645 78.1732C275.467 78.1732 280.998 72.6428 280.998 65.8206C280.998 58.9985 275.467 53.468 268.645 53.468C261.823 53.468 256.292 58.9985 256.292 65.8206C256.292 72.6428 261.823 78.1732 268.645 78.1732Z" fill="#17CF97"/>
<path d="M268.645 73.3444C272.8 73.3444 276.169 69.9759 276.169 65.8205C276.169 61.6652 272.8 58.2966 268.645 58.2966C264.49 58.2966 261.121 61.6652 261.121 65.8205C261.121 69.9759 264.49 73.3444 268.645 73.3444Z" fill="white"/>
<path d="M215.825 248V230.5H221.025L225.775 246.2H226.175V230.5H228.85V248H223.65L218.9 232.275H218.5V248H215.825ZM238.35 248.35C237.116 248.35 236.016 248.1 235.05 247.6C234.1 247.083 233.35 246.35 232.8 245.4C232.25 244.45 231.975 243.325 231.975 242.025V241.65C231.975 240.35 232.25 239.233 232.8 238.3C233.35 237.35 234.1 236.617 235.05 236.1C236.016 235.583 237.116 235.325 238.35 235.325C239.583 235.325 240.683 235.583 241.65 236.1C242.616 236.617 243.375 237.35 243.925 238.3C244.475 239.233 244.75 240.35 244.75 241.65V242.025C244.75 243.325 244.475 244.45 243.925 245.4C243.375 246.35 242.616 247.083 241.65 247.6C240.683 248.1 239.583 248.35 238.35 248.35ZM238.35 246.05C239.483 246.05 240.4 245.692 241.1 244.975C241.816 244.242 242.175 243.233 242.175 241.95V241.725C242.175 240.442 241.825 239.442 241.125 238.725C240.425 237.992 239.5 237.625 238.35 237.625C237.233 237.625 236.316 237.992 235.6 238.725C234.9 239.442 234.55 240.442 234.55 241.725V241.95C234.55 243.233 234.9 244.242 235.6 244.975C236.316 245.692 237.233 246.05 238.35 246.05ZM259.428 248.35C258.411 248.35 257.469 248.1 256.603 247.6C255.736 247.1 255.036 246.383 254.503 245.45C253.986 244.5 253.728 243.358 253.728 242.025V241.65C253.728 240.333 253.986 239.2 254.503 238.25C255.019 237.3 255.711 236.575 256.578 236.075C257.444 235.575 258.394 235.325 259.428 235.325C260.228 235.325 260.894 235.425 261.428 235.625C261.978 235.825 262.428 236.083 262.778 236.4C263.128 236.7 263.394 237.017 263.578 237.35H263.978V230.5H266.553V248H264.028V246.25H263.628C263.311 246.783 262.828 247.267 262.178 247.7C261.544 248.133 260.628 248.35 259.428 248.35ZM260.153 246.1C261.269 246.1 262.186 245.742 262.903 245.025C263.636 244.308 264.003 243.283 264.003 241.95V241.725C264.003 240.408 263.644 239.392 262.928 238.675C262.211 237.958 261.286 237.6 260.153 237.6C259.053 237.6 258.136 237.958 257.403 238.675C256.686 239.392 256.328 240.408 256.328 241.725V241.95C256.328 243.283 256.686 244.308 257.403 245.025C258.136 245.742 259.053 246.1 260.153 246.1ZM274.168 248.35C273.285 248.35 272.493 248.2 271.793 247.9C271.11 247.6 270.56 247.158 270.143 246.575C269.743 245.992 269.543 245.283 269.543 244.45C269.543 243.6 269.743 242.9 270.143 242.35C270.56 241.783 271.118 241.358 271.818 241.075C272.535 240.792 273.343 240.65 274.243 240.65H277.993V239.85C277.993 239.133 277.777 238.558 277.343 238.125C276.91 237.692 276.243 237.475 275.343 237.475C274.46 237.475 273.785 237.683 273.318 238.1C272.852 238.517 272.543 239.058 272.393 239.725L269.993 238.95C270.193 238.283 270.51 237.683 270.943 237.15C271.393 236.6 271.985 236.158 272.718 235.825C273.452 235.492 274.335 235.325 275.368 235.325C276.968 235.325 278.227 235.733 279.143 236.55C280.06 237.367 280.518 238.525 280.518 240.025V245.1C280.518 245.6 280.752 245.85 281.218 245.85H282.268V248H280.343C279.76 248 279.285 247.85 278.918 247.55C278.552 247.25 278.368 246.842 278.368 246.325V246.25H277.993C277.86 246.5 277.66 246.792 277.393 247.125C277.127 247.458 276.735 247.75 276.218 248C275.702 248.233 275.018 248.35 274.168 248.35ZM274.543 246.225C275.577 246.225 276.41 245.933 277.043 245.35C277.677 244.75 277.993 243.933 277.993 242.9V242.65H274.393C273.71 242.65 273.16 242.8 272.743 243.1C272.327 243.383 272.118 243.808 272.118 244.375C272.118 244.942 272.335 245.392 272.768 245.725C273.202 246.058 273.793 246.225 274.543 246.225ZM288.543 248C287.793 248 287.193 247.775 286.743 247.325C286.309 246.875 286.093 246.275 286.093 245.525V237.85H282.693V235.675H286.093V231.6H288.668V235.675H292.343V237.85H288.668V245.075C288.668 245.575 288.901 245.825 289.368 245.825H291.943V248H288.543ZM299.168 248.35C298.285 248.35 297.493 248.2 296.793 247.9C296.11 247.6 295.56 247.158 295.143 246.575C294.743 245.992 294.543 245.283 294.543 244.45C294.543 243.6 294.743 242.9 295.143 242.35C295.56 241.783 296.118 241.358 296.818 241.075C297.535 240.792 298.343 240.65 299.243 240.65H302.993V239.85C302.993 239.133 302.777 238.558 302.343 238.125C301.91 237.692 301.243 237.475 300.343 237.475C299.46 237.475 298.785 237.683 298.318 238.1C297.852 238.517 297.543 239.058 297.393 239.725L294.993 238.95C295.193 238.283 295.51 237.683 295.943 237.15C296.393 236.6 296.985 236.158 297.718 235.825C298.452 235.492 299.335 235.325 300.368 235.325C301.968 235.325 303.227 235.733 304.143 236.55C305.06 237.367 305.518 238.525 305.518 240.025V245.1C305.518 245.6 305.752 245.85 306.218 245.85H307.268V248H305.343C304.76 248 304.285 247.85 303.918 247.55C303.552 247.25 303.368 246.842 303.368 246.325V246.25H302.993C302.86 246.5 302.66 246.792 302.393 247.125C302.127 247.458 301.735 247.75 301.218 248C300.702 248.233 300.018 248.35 299.168 248.35ZM299.543 246.225C300.577 246.225 301.41 245.933 302.043 245.35C302.677 244.75 302.993 243.933 302.993 242.9V242.65H299.393C298.71 242.65 298.16 242.8 297.743 243.1C297.327 243.383 297.118 243.808 297.118 244.375C297.118 244.942 297.335 245.392 297.768 245.725C298.202 246.058 298.793 246.225 299.543 246.225ZM317.694 239.425C317.111 239.425 316.619 239.233 316.219 238.85C315.836 238.467 315.644 237.975 315.644 237.375C315.644 236.775 315.836 236.292 316.219 235.925C316.619 235.542 317.111 235.35 317.694 235.35C318.277 235.35 318.761 235.542 319.144 235.925C319.544 236.308 319.744 236.792 319.744 237.375C319.744 237.975 319.544 238.467 319.144 238.85C318.761 239.233 318.277 239.425 317.694 239.425ZM316.194 251.4V249.925H317.044C317.727 249.925 318.069 249.583 318.069 248.9V248.1H317.694C317.111 248.1 316.627 247.925 316.244 247.575C315.861 247.225 315.669 246.783 315.669 246.25C315.669 245.667 315.861 245.2 316.244 244.85C316.627 244.483 317.111 244.3 317.694 244.3C318.277 244.3 318.752 244.492 319.119 244.875C319.502 245.242 319.694 245.725 319.694 246.325V248.925C319.694 250.575 318.869 251.4 317.219 251.4H316.194ZM330.653 254C328.92 254 327.445 253.7 326.228 253.1C325.012 252.5 324.087 251.558 323.453 250.275C322.837 249.008 322.528 247.375 322.528 245.375V237.875C322.528 235.875 322.837 234.242 323.453 232.975C324.087 231.692 325.012 230.75 326.228 230.15C327.445 229.55 328.92 229.25 330.653 229.25V231.45C328.753 231.467 327.337 232.008 326.403 233.075C325.487 234.125 325.028 235.758 325.028 237.975V245.275C325.028 247.492 325.487 249.125 326.403 250.175C327.337 251.242 328.753 251.783 330.653 251.8V254Z" fill="#053F33"/>
</g>
<defs>
<clipPath id="clip0_342_146">
<rect width="400" height="390.45" fill="white" transform="translate(0.818359 0.861816)"/>
</clipPath>
</defs>
</svg>

